999
"DXF R12 Output" (www.mydxf.blogspot.com)
 0 
SECTION
 2 
HEADER
 9 
$ACADVER
 1 
AC1009
 9 
$EXTMIN
 10 
 0 
 20 
 0 
 9 
$EXTMAX
 10 
 8.5 
 20 
 11 
 0 
ENDSEC
 0 
SECTION
 2 
ENTITIES
0
LINE
8
Layer 1
10
0.793749
20
113.335000
11
-0.793749
21
111.747000
0
LINE
8
Layer 1
10
0.000000
20
113.864000
11
0.000000
21
111.218000
0
LINE
8
Layer 1
10
2.116660
20
111.483000
11
1.058330
21
110.424670
0
LINE
8
Layer 1
10
1.587500
20
112.012000
11
0.529170
21
110.953670
0
LINE
8
Layer 1
10
1.058330
20
112.541000
11
0.000000
21
111.482670
0
LINE
8
Layer 1
10
132.070000
20
43.335300
11
131.872101
21
44.306807
0
LINE
8
Layer 1
10
131.872101
20
44.306807
11
131.336003
21
45.099834
0
LINE
8
Layer 1
10
131.336003
20
45.099834
11
130.541906
21
45.634344
0
LINE
8
Layer 1
10
130.541906
20
45.634344
11
129.570005
21
45.830300
0
LINE
8
Layer 1
10
129.570005
20
45.830300
11
128.598104
21
45.634344
0
LINE
8
Layer 1
10
128.598104
20
45.634344
11
127.804007
21
45.099834
0
LINE
8
Layer 1
10
127.804007
20
45.099834
11
127.267909
21
44.306807
0
LINE
8
Layer 1
10
127.267909
20
44.306807
11
127.070010
21
43.335300
0
LINE
8
Layer 1
10
127.070010
20
43.335300
11
127.267909
21
42.363793
0
LINE
8
Layer 1
10
127.267909
20
42.363793
11
127.804007
21
41.570766
0
LINE
8
Layer 1
10
127.804007
20
41.570766
11
128.598104
21
41.036256
0
LINE
8
Layer 1
10
128.598104
20
41.036256
11
129.570005
21
40.840300
0
LINE
8
Layer 1
10
129.570005
20
40.840300
11
130.541906
21
41.036256
0
LINE
8
Layer 1
10
130.541906
20
41.036256
11
131.336003
21
41.570766
0
LINE
8
Layer 1
10
131.336003
20
41.570766
11
131.872101
21
42.363793
0
LINE
8
Layer 1
10
131.872101
20
42.363793
11
132.070000
21
43.335300
0
LINE
8
Layer 1
10
132.070000
20
43.335300
11
132.070000
21
43.335300
0
LINE
8
Layer 1
10
132.070000
20
93.335300
11
131.872101
21
94.306807
0
LINE
8
Layer 1
10
131.872101
20
94.306807
11
131.336003
21
95.099834
0
LINE
8
Layer 1
10
131.336003
20
95.099834
11
130.541906
21
95.634344
0
LINE
8
Layer 1
10
130.541906
20
95.634344
11
129.570005
21
95.830300
0
LINE
8
Layer 1
10
129.570005
20
95.830300
11
128.598104
21
95.634344
0
LINE
8
Layer 1
10
128.598104
20
95.634344
11
127.804007
21
95.099834
0
LINE
8
Layer 1
10
127.804007
20
95.099834
11
127.267909
21
94.306807
0
LINE
8
Layer 1
10
127.267909
20
94.306807
11
127.070010
21
93.335300
0
LINE
8
Layer 1
10
127.070010
20
93.335300
11
127.267909
21
92.363793
0
LINE
8
Layer 1
10
127.267909
20
92.363793
11
127.804007
21
91.570766
0
LINE
8
Layer 1
10
127.804007
20
91.570766
11
128.598104
21
91.036256
0
LINE
8
Layer 1
10
128.598104
20
91.036256
11
129.570005
21
90.840300
0
LINE
8
Layer 1
10
129.570005
20
90.840300
11
130.541906
21
91.036256
0
LINE
8
Layer 1
10
130.541906
20
91.036256
11
131.336003
21
91.570766
0
LINE
8
Layer 1
10
131.336003
20
91.570766
11
131.872101
21
92.363793
0
LINE
8
Layer 1
10
131.872101
20
92.363793
11
132.070000
21
93.335300
0
LINE
8
Layer 1
10
132.070000
20
93.335300
11
132.070000
21
93.335300
0
LINE
8
Layer 1
10
131.170000
20
13.335400
11
130.955641
21
14.135400
0
LINE
8
Layer 1
10
130.955641
20
14.135400
11
130.370000
21
14.721041
0
LINE
8
Layer 1
10
130.370000
20
14.721041
11
129.570000
21
14.935400
0
LINE
8
Layer 1
10
129.570000
20
14.935400
11
128.770000
21
14.721041
0
LINE
8
Layer 1
10
128.770000
20
14.721041
11
128.184359
21
14.135400
0
LINE
8
Layer 1
10
128.184359
20
14.135400
11
127.970000
21
13.335400
0
LINE
8
Layer 1
10
127.970000
20
13.335400
11
128.184359
21
12.535400
0
LINE
8
Layer 1
10
128.184359
20
12.535400
11
128.770000
21
11.949759
0
LINE
8
Layer 1
10
128.770000
20
11.949759
11
129.570000
21
11.735400
0
LINE
8
Layer 1
10
129.570000
20
11.735400
11
130.370000
21
11.949759
0
LINE
8
Layer 1
10
130.370000
20
11.949759
11
130.955641
21
12.535400
0
LINE
8
Layer 1
10
130.955641
20
12.535400
11
131.170000
21
13.335400
0
LINE
8
Layer 1
10
131.170000
20
13.335400
11
131.170000
21
13.335400
0
LINE
8
Layer 1
10
117.070000
20
80.835200
11
117.070000
21
13.335300
0
LINE
8
Layer 1
10
142.070000
20
13.335300
11
142.070000
21
80.835200
0
LINE
8
Layer 1
10
142.070000
20
80.835300
11
143.283504
21
82.177885
0
LINE
8
Layer 1
10
143.283504
20
82.177885
11
144.335207
21
83.608434
0
LINE
8
Layer 1
10
144.335207
20
83.608434
11
145.225109
21
85.114380
0
LINE
8
Layer 1
10
145.225109
20
85.114380
11
145.953209
21
86.683157
0
LINE
8
Layer 1
10
145.953209
20
86.683157
11
146.519509
21
88.302199
0
LINE
8
Layer 1
10
146.519509
20
88.302199
11
146.924007
21
89.958938
0
LINE
8
Layer 1
10
146.924007
20
89.958938
11
147.166704
21
91.640810
0
LINE
8
Layer 1
10
147.166704
20
91.640810
11
147.247600
21
93.335248
0
LINE
8
Layer 1
10
147.247600
20
93.335248
11
147.166695
21
95.029685
0
LINE
8
Layer 1
10
147.166695
20
95.029685
11
146.923989
21
96.711556
0
LINE
8
Layer 1
10
146.923989
20
96.711556
11
146.519482
21
98.368294
0
LINE
8
Layer 1
10
146.519482
20
98.368294
11
145.953174
21
99.987332
0
LINE
8
Layer 1
10
145.953174
20
99.987332
11
145.225066
21
101.556105
0
LINE
8
Layer 1
10
145.225066
20
101.556105
11
144.335156
21
103.062047
0
LINE
8
Layer 1
10
144.335156
20
103.062047
11
143.283446
21
104.492590
0
LINE
8
Layer 1
10
143.283446
20
104.492590
11
142.069934
21
105.835169
0
LINE
8
Layer 1
10
142.069934
20
105.835169
11
140.727352
21
107.048677
0
LINE
8
Layer 1
10
140.727352
20
107.048677
11
139.296806
21
108.100383
0
LINE
8
Layer 1
10
139.296806
20
108.100383
11
137.790862
21
108.990289
0
LINE
8
Layer 1
10
137.790862
20
108.990289
11
136.222088
21
109.718393
0
LINE
8
Layer 1
10
136.222088
20
109.718393
11
134.603048
21
110.284697
0
LINE
8
Layer 1
10
134.603048
20
110.284697
11
132.946309
21
110.689200
0
LINE
8
Layer 1
10
132.946309
20
110.689200
11
131.264438
21
110.931901
0
LINE
8
Layer 1
10
131.264438
20
110.931901
11
129.570000
21
111.012802
0
LINE
8
Layer 1
10
129.570000
20
111.012802
11
127.875562
21
110.931901
0
LINE
8
Layer 1
10
127.875562
20
110.931901
11
126.193691
21
110.689200
0
LINE
8
Layer 1
10
126.193691
20
110.689200
11
124.536952
21
110.284697
0
LINE
8
Layer 1
10
124.536952
20
110.284697
11
122.917912
21
109.718393
0
LINE
8
Layer 1
10
122.917912
20
109.718393
11
121.349138
21
108.990289
0
LINE
8
Layer 1
10
121.349138
20
108.990289
11
119.843194
21
108.100383
0
LINE
8
Layer 1
10
119.843194
20
108.100383
11
118.412648
21
107.048677
0
LINE
8
Layer 1
10
118.412648
20
107.048677
11
117.070066
21
105.835169
0
LINE
8
Layer 1
10
117.070066
20
105.835169
11
115.856554
21
104.492590
0
LINE
8
Layer 1
10
115.856554
20
104.492590
11
114.804844
21
103.062047
0
LINE
8
Layer 1
10
114.804844
20
103.062047
11
113.914934
21
101.556105
0
LINE
8
Layer 1
10
113.914934
20
101.556105
11
113.186826
21
99.987332
0
LINE
8
Layer 1
10
113.186826
20
99.987332
11
112.620518
21
98.368294
0
LINE
8
Layer 1
10
112.620518
20
98.368294
11
112.216011
21
96.711556
0
LINE
8
Layer 1
10
112.216011
20
96.711556
11
111.973305
21
95.029685
0
LINE
8
Layer 1
10
111.973305
20
95.029685
11
111.892400
21
93.335248
0
LINE
8
Layer 1
10
111.892400
20
93.335248
11
111.973296
21
91.640810
0
LINE
8
Layer 1
10
111.973296
20
91.640810
11
112.215993
21
89.958938
0
LINE
8
Layer 1
10
112.215993
20
89.958938
11
112.620491
21
88.302199
0
LINE
8
Layer 1
10
112.620491
20
88.302199
11
113.186791
21
86.683157
0
LINE
8
Layer 1
10
113.186791
20
86.683157
11
113.914891
21
85.114380
0
LINE
8
Layer 1
10
113.914891
20
85.114380
11
114.804793
21
83.608434
0
LINE
8
Layer 1
10
114.804793
20
83.608434
11
115.856496
21
82.177885
0
LINE
8
Layer 1
10
115.856496
20
82.177885
11
117.070000
21
80.835300
0
LINE
8
Layer 1
10
117.070000
20
13.335400
11
117.179926
21
11.679655
0
LINE
8
Layer 1
10
117.179926
20
11.679655
11
117.502693
21
10.073929
0
LINE
8
Layer 1
10
117.502693
20
10.073929
11
118.027785
21
8.536439
0
LINE
8
Layer 1
10
118.027785
20
8.536439
11
118.744682
21
7.085400
0
LINE
8
Layer 1
10
118.744682
20
7.085400
11
119.642870
21
5.739029
0
LINE
8
Layer 1
10
119.642870
20
5.739029
11
120.711830
21
4.515541
0
LINE
8
Layer 1
10
120.711830
20
4.515541
11
121.941046
21
3.433154
0
LINE
8
Layer 1
10
121.941046
20
3.433154
11
123.320000
21
2.510082
0
LINE
8
Layer 1
10
123.320000
20
2.510082
11
124.808880
21
1.777409
0
LINE
8
Layer 1
10
124.808880
20
1.777409
11
126.360863
21
1.254071
0
LINE
8
Layer 1
10
126.360863
20
1.254071
11
127.954914
21
0.940068
0
LINE
8
Layer 1
10
127.954914
20
0.940068
11
129.570000
21
0.835400
0
LINE
8
Layer 1
10
129.570000
20
0.835400
11
131.185086
21
0.940068
0
LINE
8
Layer 1
10
131.185086
20
0.940068
11
132.779137
21
1.254071
0
LINE
8
Layer 1
10
132.779137
20
1.254071
11
134.331120
21
1.777409
0
LINE
8
Layer 1
10
134.331120
20
1.777409
11
135.820000
21
2.510082
0
LINE
8
Layer 1
10
135.820000
20
2.510082
11
137.198954
21
3.433154
0
LINE
8
Layer 1
10
137.198954
20
3.433154
11
138.428170
21
4.515541
0
LINE
8
Layer 1
10
138.428170
20
4.515541
11
139.497130
21
5.739029
0
LINE
8
Layer 1
10
139.497130
20
5.739029
11
140.395318
21
7.085400
0
LINE
8
Layer 1
10
140.395318
20
7.085400
11
141.112215
21
8.536439
0
LINE
8
Layer 1
10
141.112215
20
8.536439
11
141.637307
21
10.073929
0
LINE
8
Layer 1
10
141.637307
20
10.073929
11
141.960074
21
11.679655
0
LINE
8
Layer 1
10
141.960074
20
11.679655
11
142.070000
21
13.335400
0
LINE
8
Layer 1
10
95.166300
20
43.682300
11
94.968401
21
44.653807
0
LINE
8
Layer 1
10
94.968401
20
44.653807
11
94.432303
21
45.446834
0
LINE
8
Layer 1
10
94.432303
20
45.446834
11
93.638206
21
45.981344
0
LINE
8
Layer 1
10
93.638206
20
45.981344
11
92.666305
21
46.177300
0
LINE
8
Layer 1
10
92.666305
20
46.177300
11
91.694404
21
45.981344
0
LINE
8
Layer 1
10
91.694404
20
45.981344
11
90.900307
21
45.446834
0
LINE
8
Layer 1
10
90.900307
20
45.446834
11
90.364209
21
44.653807
0
LINE
8
Layer 1
10
90.364209
20
44.653807
11
90.166310
21
43.682300
0
LINE
8
Layer 1
10
90.166310
20
43.682300
11
90.364209
21
42.710793
0
LINE
8
Layer 1
10
90.364209
20
42.710793
11
90.900307
21
41.917766
0
LINE
8
Layer 1
10
90.900307
20
41.917766
11
91.694404
21
41.383256
0
LINE
8
Layer 1
10
91.694404
20
41.383256
11
92.666305
21
41.187300
0
LINE
8
Layer 1
10
92.666305
20
41.187300
11
93.638206
21
41.383256
0
LINE
8
Layer 1
10
93.638206
20
41.383256
11
94.432303
21
41.917766
0
LINE
8
Layer 1
10
94.432303
20
41.917766
11
94.968401
21
42.710793
0
LINE
8
Layer 1
10
94.968401
20
42.710793
11
95.166300
21
43.682300
0
LINE
8
Layer 1
10
95.166300
20
43.682300
11
95.166300
21
43.682300
0
LINE
8
Layer 1
10
95.166300
20
93.682300
11
94.968401
21
94.653807
0
LINE
8
Layer 1
10
94.968401
20
94.653807
11
94.432303
21
95.446834
0
LINE
8
Layer 1
10
94.432303
20
95.446834
11
93.638206
21
95.981344
0
LINE
8
Layer 1
10
93.638206
20
95.981344
11
92.666305
21
96.177300
0
LINE
8
Layer 1
10
92.666305
20
96.177300
11
91.694404
21
95.981344
0
LINE
8
Layer 1
10
91.694404
20
95.981344
11
90.900307
21
95.446834
0
LINE
8
Layer 1
10
90.900307
20
95.446834
11
90.364209
21
94.653807
0
LINE
8
Layer 1
10
90.364209
20
94.653807
11
90.166310
21
93.682300
0
LINE
8
Layer 1
10
90.166310
20
93.682300
11
90.364209
21
92.710793
0
LINE
8
Layer 1
10
90.364209
20
92.710793
11
90.900307
21
91.917766
0
LINE
8
Layer 1
10
90.900307
20
91.917766
11
91.694404
21
91.383256
0
LINE
8
Layer 1
10
91.694404
20
91.383256
11
92.666305
21
91.187300
0
LINE
8
Layer 1
10
92.666305
20
91.187300
11
93.638206
21
91.383256
0
LINE
8
Layer 1
10
93.638206
20
91.383256
11
94.432303
21
91.917766
0
LINE
8
Layer 1
10
94.432303
20
91.917766
11
94.968401
21
92.710793
0
LINE
8
Layer 1
10
94.968401
20
92.710793
11
95.166300
21
93.682300
0
LINE
8
Layer 1
10
95.166300
20
93.682300
11
95.166300
21
93.682300
0
LINE
8
Layer 1
10
94.266300
20
13.682400
11
94.051941
21
14.482400
0
LINE
8
Layer 1
10
94.051941
20
14.482400
11
93.466300
21
15.068041
0
LINE
8
Layer 1
10
93.466300
20
15.068041
11
92.666300
21
15.282400
0
LINE
8
Layer 1
10
92.666300
20
15.282400
11
91.866300
21
15.068041
0
LINE
8
Layer 1
10
91.866300
20
15.068041
11
91.280659
21
14.482400
0
LINE
8
Layer 1
10
91.280659
20
14.482400
11
91.066300
21
13.682400
0
LINE
8
Layer 1
10
91.066300
20
13.682400
11
91.192036
21
13.059608
0
LINE
8
Layer 1
10
91.192036
20
13.059608
11
91.534929
21
12.551029
0
LINE
8
Layer 1
10
91.534929
20
12.551029
11
92.043508
21
12.208136
0
LINE
8
Layer 1
10
92.043508
20
12.208136
11
92.666300
21
12.082400
0
LINE
8
Layer 1
10
92.666300
20
12.082400
11
93.289092
21
12.208136
0
LINE
8
Layer 1
10
93.289092
20
12.208136
11
93.797671
21
12.551029
0
LINE
8
Layer 1
10
93.797671
20
12.551029
11
94.140564
21
13.059608
0
LINE
8
Layer 1
10
94.140564
20
13.059608
11
94.266300
21
13.682400
0
LINE
8
Layer 1
10
94.266300
20
13.682400
11
94.266300
21
13.682400
0
LINE
8
Layer 1
10
80.166300
20
81.182200
11
80.166300
21
13.682300
0
LINE
8
Layer 1
10
105.166000
20
13.682300
11
105.166000
21
81.182200
0
LINE
8
Layer 1
10
105.166000
20
81.182300
11
106.379504
21
82.524885
0
LINE
8
Layer 1
10
106.379504
20
82.524885
11
107.431207
21
83.955434
0
LINE
8
Layer 1
10
107.431207
20
83.955434
11
108.321109
21
85.461380
0
LINE
8
Layer 1
10
108.321109
20
85.461380
11
109.049209
21
87.030157
0
LINE
8
Layer 1
10
109.049209
20
87.030157
11
109.615509
21
88.649199
0
LINE
8
Layer 1
10
109.615509
20
88.649199
11
110.020007
21
90.305938
0
LINE
8
Layer 1
10
110.020007
20
90.305938
11
110.262704
21
91.987810
0
LINE
8
Layer 1
10
110.262704
20
91.987810
11
110.343600
21
93.682248
0
LINE
8
Layer 1
10
110.343600
20
93.682248
11
110.262695
21
95.376685
0
LINE
8
Layer 1
10
110.262695
20
95.376685
11
110.019989
21
97.058556
0
LINE
8
Layer 1
10
110.019989
20
97.058556
11
109.615482
21
98.715294
0
LINE
8
Layer 1
10
109.615482
20
98.715294
11
109.049174
21
100.334332
0
LINE
8
Layer 1
10
109.049174
20
100.334332
11
108.321066
21
101.903105
0
LINE
8
Layer 1
10
108.321066
20
101.903105
11
107.431156
21
103.409047
0
LINE
8
Layer 1
10
107.431156
20
103.409047
11
106.379446
21
104.839590
0
LINE
8
Layer 1
10
106.379446
20
104.839590
11
105.165934
21
106.182169
0
LINE
8
Layer 1
10
105.165934
20
106.182169
11
103.823352
21
107.395677
0
LINE
8
Layer 1
10
103.823352
20
107.395677
11
102.392806
21
108.447383
0
LINE
8
Layer 1
10
102.392806
20
108.447383
11
100.886862
21
109.337289
0
LINE
8
Layer 1
10
100.886862
20
109.337289
11
99.318088
21
110.065393
0
LINE
8
Layer 1
10
99.318088
20
110.065393
11
97.699048
21
110.631697
0
LINE
8
Layer 1
10
97.699048
20
110.631697
11
96.042309
21
111.036200
0
LINE
8
Layer 1
10
96.042309
20
111.036200
11
94.360438
21
111.278901
0
LINE
8
Layer 1
10
94.360438
20
111.278901
11
92.666000
21
111.359802
0
LINE
8
Layer 1
10
92.666000
20
111.359802
11
90.971562
21
111.278901
0
LINE
8
Layer 1
10
90.971562
20
111.278901
11
89.289691
21
111.036200
0
LINE
8
Layer 1
10
89.289691
20
111.036200
11
87.632952
21
110.631697
0
LINE
8
Layer 1
10
87.632952
20
110.631697
11
86.013912
21
110.065393
0
LINE
8
Layer 1
10
86.013912
20
110.065393
11
84.445138
21
109.337289
0
LINE
8
Layer 1
10
84.445138
20
109.337289
11
82.939194
21
108.447383
0
LINE
8
Layer 1
10
82.939194
20
108.447383
11
81.508648
21
107.395677
0
LINE
8
Layer 1
10
81.508648
20
107.395677
11
80.166066
21
106.182169
0
LINE
8
Layer 1
10
80.166066
20
106.182169
11
78.952554
21
104.839590
0
LINE
8
Layer 1
10
78.952554
20
104.839590
11
77.900844
21
103.409047
0
LINE
8
Layer 1
10
77.900844
20
103.409047
11
77.010934
21
101.903105
0
LINE
8
Layer 1
10
77.010934
20
101.903105
11
76.282826
21
100.334332
0
LINE
8
Layer 1
10
76.282826
20
100.334332
11
75.716518
21
98.715294
0
LINE
8
Layer 1
10
75.716518
20
98.715294
11
75.312011
21
97.058556
0
LINE
8
Layer 1
10
75.312011
20
97.058556
11
75.069305
21
95.376685
0
LINE
8
Layer 1
10
75.069305
20
95.376685
11
74.988400
21
93.682248
0
LINE
8
Layer 1
10
74.988400
20
93.682248
11
75.069296
21
91.987810
0
LINE
8
Layer 1
10
75.069296
20
91.987810
11
75.311993
21
90.305938
0
LINE
8
Layer 1
10
75.311993
20
90.305938
11
75.716491
21
88.649199
0
LINE
8
Layer 1
10
75.716491
20
88.649199
11
76.282791
21
87.030157
0
LINE
8
Layer 1
10
76.282791
20
87.030157
11
77.010891
21
85.461380
0
LINE
8
Layer 1
10
77.010891
20
85.461380
11
77.900793
21
83.955434
0
LINE
8
Layer 1
10
77.900793
20
83.955434
11
78.952496
21
82.524885
0
LINE
8
Layer 1
10
78.952496
20
82.524885
11
80.166000
21
81.182300
0
LINE
8
Layer 1
10
80.166300
20
13.682400
11
80.420256
21
11.163214
0
LINE
8
Layer 1
10
80.420256
20
11.163214
11
81.148612
21
8.816836
0
LINE
8
Layer 1
10
81.148612
20
8.816836
11
82.301104
21
6.693531
0
LINE
8
Layer 1
10
82.301104
20
6.693531
11
83.827465
21
4.843565
0
LINE
8
Layer 1
10
83.827465
20
4.843565
11
85.677431
21
3.317204
0
LINE
8
Layer 1
10
85.677431
20
3.317204
11
87.800736
21
2.164712
0
LINE
8
Layer 1
10
87.800736
20
2.164712
11
90.147114
21
1.436356
0
LINE
8
Layer 1
10
90.147114
20
1.436356
11
92.666300
21
1.182400
0
LINE
8
Layer 1
10
92.666300
20
1.182400
11
95.185486
21
1.436356
0
LINE
8
Layer 1
10
95.185486
20
1.436356
11
97.531864
21
2.164712
0
LINE
8
Layer 1
10
97.531864
20
2.164712
11
99.655169
21
3.317204
0
LINE
8
Layer 1
10
99.655169
20
3.317204
11
101.505135
21
4.843565
0
LINE
8
Layer 1
10
101.505135
20
4.843565
11
103.031496
21
6.693531
0
LINE
8
Layer 1
10
103.031496
20
6.693531
11
104.183988
21
8.816836
0
LINE
8
Layer 1
10
104.183988
20
8.816836
11
104.912344
21
11.163214
0
LINE
8
Layer 1
10
104.912344
20
11.163214
11
105.166300
21
13.682400
0
LINE
8
Layer 1
10
57.198600
20
44.392300
11
57.000701
21
45.363807
0
LINE
8
Layer 1
10
57.000701
20
45.363807
11
56.464603
21
46.156834
0
LINE
8
Layer 1
10
56.464603
20
46.156834
11
55.670506
21
46.691344
0
LINE
8
Layer 1
10
55.670506
20
46.691344
11
54.698605
21
46.887300
0
LINE
8
Layer 1
10
54.698605
20
46.887300
11
53.726704
21
46.691344
0
LINE
8
Layer 1
10
53.726704
20
46.691344
11
52.932607
21
46.156834
0
LINE
8
Layer 1
10
52.932607
20
46.156834
11
52.396509
21
45.363807
0
LINE
8
Layer 1
10
52.396509
20
45.363807
11
52.198610
21
44.392300
0
LINE
8
Layer 1
10
52.198610
20
44.392300
11
52.396509
21
43.420793
0
LINE
8
Layer 1
10
52.396509
20
43.420793
11
52.932607
21
42.627766
0
LINE
8
Layer 1
10
52.932607
20
42.627766
11
53.726704
21
42.093256
0
LINE
8
Layer 1
10
53.726704
20
42.093256
11
54.698605
21
41.897300
0
LINE
8
Layer 1
10
54.698605
20
41.897300
11
55.670506
21
42.093256
0
LINE
8
Layer 1
10
55.670506
20
42.093256
11
56.464603
21
42.627766
0
LINE
8
Layer 1
10
56.464603
20
42.627766
11
57.000701
21
43.420793
0
LINE
8
Layer 1
10
57.000701
20
43.420793
11
57.198600
21
44.392300
0
LINE
8
Layer 1
10
57.198600
20
44.392300
11
57.198600
21
44.392300
0
LINE
8
Layer 1
10
57.198600
20
94.392300
11
57.000701
21
95.363807
0
LINE
8
Layer 1
10
57.000701
20
95.363807
11
56.464603
21
96.156834
0
LINE
8
Layer 1
10
56.464603
20
96.156834
11
55.670506
21
96.691344
0
LINE
8
Layer 1
10
55.670506
20
96.691344
11
54.698605
21
96.887300
0
LINE
8
Layer 1
10
54.698605
20
96.887300
11
53.726704
21
96.691344
0
LINE
8
Layer 1
10
53.726704
20
96.691344
11
52.932607
21
96.156834
0
LINE
8
Layer 1
10
52.932607
20
96.156834
11
52.396509
21
95.363807
0
LINE
8
Layer 1
10
52.396509
20
95.363807
11
52.198610
21
94.392300
0
LINE
8
Layer 1
10
52.198610
20
94.392300
11
52.396509
21
93.420793
0
LINE
8
Layer 1
10
52.396509
20
93.420793
11
52.932607
21
92.627766
0
LINE
8
Layer 1
10
52.932607
20
92.627766
11
53.726704
21
92.093256
0
LINE
8
Layer 1
10
53.726704
20
92.093256
11
54.698605
21
91.897300
0
LINE
8
Layer 1
10
54.698605
20
91.897300
11
55.670506
21
92.093256
0
LINE
8
Layer 1
10
55.670506
20
92.093256
11
56.464603
21
92.627766
0
LINE
8
Layer 1
10
56.464603
20
92.627766
11
57.000701
21
93.420793
0
LINE
8
Layer 1
10
57.000701
20
93.420793
11
57.198600
21
94.392300
0
LINE
8
Layer 1
10
57.198600
20
94.392300
11
57.198600
21
94.392300
0
LINE
8
Layer 1
10
56.298600
20
14.392400
11
56.084241
21
15.192400
0
LINE
8
Layer 1
10
56.084241
20
15.192400
11
55.498600
21
15.778041
0
LINE
8
Layer 1
10
55.498600
20
15.778041
11
54.698600
21
15.992400
0
LINE
8
Layer 1
10
54.698600
20
15.992400
11
53.898600
21
15.778041
0
LINE
8
Layer 1
10
53.898600
20
15.778041
11
53.312959
21
15.192400
0
LINE
8
Layer 1
10
53.312959
20
15.192400
11
53.098600
21
14.392400
0
LINE
8
Layer 1
10
53.098600
20
14.392400
11
53.224336
21
13.769608
0
LINE
8
Layer 1
10
53.224336
20
13.769608
11
53.567229
21
13.261029
0
LINE
8
Layer 1
10
53.567229
20
13.261029
11
54.075808
21
12.918136
0
LINE
8
Layer 1
10
54.075808
20
12.918136
11
54.698600
21
12.792400
0
LINE
8
Layer 1
10
54.698600
20
12.792400
11
55.321392
21
12.918136
0
LINE
8
Layer 1
10
55.321392
20
12.918136
11
55.829971
21
13.261029
0
LINE
8
Layer 1
10
55.829971
20
13.261029
11
56.172864
21
13.769608
0
LINE
8
Layer 1
10
56.172864
20
13.769608
11
56.298600
21
14.392400
0
LINE
8
Layer 1
10
56.298600
20
14.392400
11
56.298600
21
14.392400
0
LINE
8
Layer 1
10
42.198600
20
81.892200
11
42.198600
21
14.392300
0
LINE
8
Layer 1
10
67.198600
20
14.392300
11
67.198600
21
81.892200
0
LINE
8
Layer 1
10
67.198600
20
81.892300
11
68.412104
21
83.234885
0
LINE
8
Layer 1
10
68.412104
20
83.234885
11
69.463807
21
84.665434
0
LINE
8
Layer 1
10
69.463807
20
84.665434
11
70.353709
21
86.171380
0
LINE
8
Layer 1
10
70.353709
20
86.171380
11
71.081809
21
87.740157
0
LINE
8
Layer 1
10
71.081809
20
87.740157
11
71.648109
21
89.359199
0
LINE
8
Layer 1
10
71.648109
20
89.359199
11
72.052607
21
91.015938
0
LINE
8
Layer 1
10
72.052607
20
91.015938
11
72.295304
21
92.697810
0
LINE
8
Layer 1
10
72.295304
20
92.697810
11
72.376200
21
94.392248
0
LINE
8
Layer 1
10
72.376200
20
94.392248
11
72.295295
21
96.086685
0
LINE
8
Layer 1
10
72.295295
20
96.086685
11
72.052589
21
97.768556
0
LINE
8
Layer 1
10
72.052589
20
97.768556
11
71.648082
21
99.425294
0
LINE
8
Layer 1
10
71.648082
20
99.425294
11
71.081774
21
101.044332
0
LINE
8
Layer 1
10
71.081774
20
101.044332
11
70.353666
21
102.613105
0
LINE
8
Layer 1
10
70.353666
20
102.613105
11
69.463756
21
104.119047
0
LINE
8
Layer 1
10
69.463756
20
104.119047
11
68.412046
21
105.549590
0
LINE
8
Layer 1
10
68.412046
20
105.549590
11
67.198534
21
106.892169
0
LINE
8
Layer 1
10
67.198534
20
106.892169
11
65.855952
21
108.105677
0
LINE
8
Layer 1
10
65.855952
20
108.105677
11
64.425406
21
109.157383
0
LINE
8
Layer 1
10
64.425406
20
109.157383
11
62.919462
21
110.047289
0
LINE
8
Layer 1
10
62.919462
20
110.047289
11
61.350688
21
110.775393
0
LINE
8
Layer 1
10
61.350688
20
110.775393
11
59.731648
21
111.341697
0
LINE
8
Layer 1
10
59.731648
20
111.341697
11
58.074909
21
111.746200
0
LINE
8
Layer 1
10
58.074909
20
111.746200
11
56.393038
21
111.988901
0
LINE
8
Layer 1
10
56.393038
20
111.988901
11
54.698600
21
112.069802
0
LINE
8
Layer 1
10
54.698600
20
112.069802
11
53.004162
21
111.988901
0
LINE
8
Layer 1
10
53.004162
20
111.988901
11
51.322291
21
111.746200
0
LINE
8
Layer 1
10
51.322291
20
111.746200
11
49.665552
21
111.341697
0
LINE
8
Layer 1
10
49.665552
20
111.341697
11
48.046512
21
110.775393
0
LINE
8
Layer 1
10
48.046512
20
110.775393
11
46.477738
21
110.047289
0
LINE
8
Layer 1
10
46.477738
20
110.047289
11
44.971794
21
109.157383
0
LINE
8
Layer 1
10
44.971794
20
109.157383
11
43.541248
21
108.105677
0
LINE
8
Layer 1
10
43.541248
20
108.105677
11
42.198666
21
106.892169
0
LINE
8
Layer 1
10
42.198666
20
106.892169
11
40.985154
21
105.549590
0
LINE
8
Layer 1
10
40.985154
20
105.549590
11
39.933444
21
104.119047
0
LINE
8
Layer 1
10
39.933444
20
104.119047
11
39.043534
21
102.613105
0
LINE
8
Layer 1
10
39.043534
20
102.613105
11
38.315426
21
101.044332
0
LINE
8
Layer 1
10
38.315426
20
101.044332
11
37.749118
21
99.425294
0
LINE
8
Layer 1
10
37.749118
20
99.425294
11
37.344611
21
97.768556
0
LINE
8
Layer 1
10
37.344611
20
97.768556
11
37.101905
21
96.086685
0
LINE
8
Layer 1
10
37.101905
20
96.086685
11
37.021000
21
94.392248
0
LINE
8
Layer 1
10
37.021000
20
94.392248
11
37.101896
21
92.697810
0
LINE
8
Layer 1
10
37.101896
20
92.697810
11
37.344593
21
91.015938
0
LINE
8
Layer 1
10
37.344593
20
91.015938
11
37.749091
21
89.359199
0
LINE
8
Layer 1
10
37.749091
20
89.359199
11
38.315391
21
87.740157
0
LINE
8
Layer 1
10
38.315391
20
87.740157
11
39.043491
21
86.171380
0
LINE
8
Layer 1
10
39.043491
20
86.171380
11
39.933393
21
84.665434
0
LINE
8
Layer 1
10
39.933393
20
84.665434
11
40.985096
21
83.234885
0
LINE
8
Layer 1
10
40.985096
20
83.234885
11
42.198600
21
81.892300
0
LINE
8
Layer 1
10
42.198600
20
14.392400
11
42.308526
21
12.736655
0
LINE
8
Layer 1
10
42.308526
20
12.736655
11
42.631293
21
11.130929
0
LINE
8
Layer 1
10
42.631293
20
11.130929
11
43.156385
21
9.593439
0
LINE
8
Layer 1
10
43.156385
20
9.593439
11
43.873282
21
8.142400
0
LINE
8
Layer 1
10
43.873282
20
8.142400
11
44.771470
21
6.796029
0
LINE
8
Layer 1
10
44.771470
20
6.796029
11
45.840430
21
5.572541
0
LINE
8
Layer 1
10
45.840430
20
5.572541
11
47.069646
21
4.490154
0
LINE
8
Layer 1
10
47.069646
20
4.490154
11
48.448600
21
3.567082
0
LINE
8
Layer 1
10
48.448600
20
3.567082
11
49.937480
21
2.834409
0
LINE
8
Layer 1
10
49.937480
20
2.834409
11
51.489463
21
2.311071
0
LINE
8
Layer 1
10
51.489463
20
2.311071
11
53.083514
21
1.997068
0
LINE
8
Layer 1
10
53.083514
20
1.997068
11
54.698600
21
1.892400
0
LINE
8
Layer 1
10
54.698600
20
1.892400
11
56.313686
21
1.997068
0
LINE
8
Layer 1
10
56.313686
20
1.997068
11
57.907737
21
2.311071
0
LINE
8
Layer 1
10
57.907737
20
2.311071
11
59.459720
21
2.834409
0
LINE
8
Layer 1
10
59.459720
20
2.834409
11
60.948600
21
3.567082
0
LINE
8
Layer 1
10
60.948600
20
3.567082
11
62.327554
21
4.490154
0
LINE
8
Layer 1
10
62.327554
20
4.490154
11
63.556770
21
5.572541
0
LINE
8
Layer 1
10
63.556770
20
5.572541
11
64.625730
21
6.796029
0
LINE
8
Layer 1
10
64.625730
20
6.796029
11
65.523918
21
8.142400
0
LINE
8
Layer 1
10
65.523918
20
8.142400
11
66.240815
21
9.593439
0
LINE
8
Layer 1
10
66.240815
20
9.593439
11
66.765907
21
11.130929
0
LINE
8
Layer 1
10
66.765907
20
11.130929
11
67.088674
21
12.736655
0
LINE
8
Layer 1
10
67.088674
20
12.736655
11
67.198600
21
14.392400
0
LINE
8
Layer 1
10
20.650300
20
42.973300
11
20.452401
21
43.944807
0
LINE
8
Layer 1
10
20.452401
20
43.944807
11
19.916303
21
44.737834
0
LINE
8
Layer 1
10
19.916303
20
44.737834
11
19.122206
21
45.272344
0
LINE
8
Layer 1
10
19.122206
20
45.272344
11
18.150305
21
45.468300
0
LINE
8
Layer 1
10
18.150305
20
45.468300
11
17.178404
21
45.272344
0
LINE
8
Layer 1
10
17.178404
20
45.272344
11
16.384307
21
44.737834
0
LINE
8
Layer 1
10
16.384307
20
44.737834
11
15.848209
21
43.944807
0
LINE
8
Layer 1
10
15.848209
20
43.944807
11
15.650310
21
42.973300
0
LINE
8
Layer 1
10
15.650310
20
42.973300
11
15.848209
21
42.001793
0
LINE
8
Layer 1
10
15.848209
20
42.001793
11
16.384307
21
41.208766
0
LINE
8
Layer 1
10
16.384307
20
41.208766
11
17.178404
21
40.674256
0
LINE
8
Layer 1
10
17.178404
20
40.674256
11
18.150305
21
40.478300
0
LINE
8
Layer 1
10
18.150305
20
40.478300
11
19.122206
21
40.674256
0
LINE
8
Layer 1
10
19.122206
20
40.674256
11
19.916303
21
41.208766
0
LINE
8
Layer 1
10
19.916303
20
41.208766
11
20.452401
21
42.001793
0
LINE
8
Layer 1
10
20.452401
20
42.001793
11
20.650300
21
42.973300
0
LINE
8
Layer 1
10
20.650300
20
42.973300
11
20.650300
21
42.973300
0
LINE
8
Layer 1
10
20.650200
20
92.973300
11
20.452301
21
93.944807
0
LINE
8
Layer 1
10
20.452301
20
93.944807
11
19.916203
21
94.737834
0
LINE
8
Layer 1
10
19.916203
20
94.737834
11
19.122106
21
95.272344
0
LINE
8
Layer 1
10
19.122106
20
95.272344
11
18.150205
21
95.468300
0
LINE
8
Layer 1
10
18.150205
20
95.468300
11
17.178304
21
95.272344
0
LINE
8
Layer 1
10
17.178304
20
95.272344
11
16.384207
21
94.737834
0
LINE
8
Layer 1
10
16.384207
20
94.737834
11
15.848109
21
93.944807
0
LINE
8
Layer 1
10
15.848109
20
93.944807
11
15.650210
21
92.973300
0
LINE
8
Layer 1
10
15.650210
20
92.973300
11
15.848109
21
92.001793
0
LINE
8
Layer 1
10
15.848109
20
92.001793
11
16.384207
21
91.208766
0
LINE
8
Layer 1
10
16.384207
20
91.208766
11
17.178304
21
90.674256
0
LINE
8
Layer 1
10
17.178304
20
90.674256
11
18.150205
21
90.478300
0
LINE
8
Layer 1
10
18.150205
20
90.478300
11
19.122106
21
90.674256
0
LINE
8
Layer 1
10
19.122106
20
90.674256
11
19.916203
21
91.208766
0
LINE
8
Layer 1
10
19.916203
20
91.208766
11
20.452301
21
92.001793
0
LINE
8
Layer 1
10
20.452301
20
92.001793
11
20.650200
21
92.973300
0
LINE
8
Layer 1
10
20.650200
20
92.973300
11
20.650200
21
92.973300
0
LINE
8
Layer 1
10
19.750200
20
12.973400
11
19.535841
21
13.773400
0
LINE
8
Layer 1
10
19.535841
20
13.773400
11
18.950200
21
14.359041
0
LINE
8
Layer 1
10
18.950200
20
14.359041
11
18.150200
21
14.573400
0
LINE
8
Layer 1
10
18.150200
20
14.573400
11
17.350200
21
14.359041
0
LINE
8
Layer 1
10
17.350200
20
14.359041
11
16.764559
21
13.773400
0
LINE
8
Layer 1
10
16.764559
20
13.773400
11
16.550200
21
12.973400
0
LINE
8
Layer 1
10
16.550200
20
12.973400
11
16.764559
21
12.173400
0
LINE
8
Layer 1
10
16.764559
20
12.173400
11
17.350200
21
11.587759
0
LINE
8
Layer 1
10
17.350200
20
11.587759
11
18.150200
21
11.373400
0
LINE
8
Layer 1
10
18.150200
20
11.373400
11
18.950200
21
11.587759
0
LINE
8
Layer 1
10
18.950200
20
11.587759
11
19.535841
21
12.173400
0
LINE
8
Layer 1
10
19.535841
20
12.173400
11
19.750200
21
12.973400
0
LINE
8
Layer 1
10
19.750200
20
12.973400
11
19.750200
21
12.973400
0
LINE
8
Layer 1
10
5.650210
20
80.473200
11
5.650210
21
12.973300
0
LINE
8
Layer 1
10
30.650200
20
12.973300
11
30.650200
21
80.473200
0
LINE
8
Layer 1
10
30.650200
20
80.473300
11
31.863704
21
81.815885
0
LINE
8
Layer 1
10
31.863704
20
81.815885
11
32.915407
21
83.246434
0
LINE
8
Layer 1
10
32.915407
20
83.246434
11
33.805309
21
84.752380
0
LINE
8
Layer 1
10
33.805309
20
84.752380
11
34.533409
21
86.321157
0
LINE
8
Layer 1
10
34.533409
20
86.321157
11
35.099709
21
87.940199
0
LINE
8
Layer 1
10
35.099709
20
87.940199
11
35.504207
21
89.596938
0
LINE
8
Layer 1
10
35.504207
20
89.596938
11
35.746904
21
91.278810
0
LINE
8
Layer 1
10
35.746904
20
91.278810
11
35.827800
21
92.973248
0
LINE
8
Layer 1
10
35.827800
20
92.973248
11
35.746895
21
94.667685
0
LINE
8
Layer 1
10
35.746895
20
94.667685
11
35.504189
21
96.349556
0
LINE
8
Layer 1
10
35.504189
20
96.349556
11
35.099682
21
98.006294
0
LINE
8
Layer 1
10
35.099682
20
98.006294
11
34.533374
21
99.625332
0
LINE
8
Layer 1
10
34.533374
20
99.625332
11
33.805266
21
101.194105
0
LINE
8
Layer 1
10
33.805266
20
101.194105
11
32.915356
21
102.700047
0
LINE
8
Layer 1
10
32.915356
20
102.700047
11
31.863646
21
104.130590
0
LINE
8
Layer 1
10
31.863646
20
104.130590
11
30.650134
21
105.473169
0
LINE
8
Layer 1
10
30.650134
20
105.473169
11
29.307552
21
106.686677
0
LINE
8
Layer 1
10
29.307552
20
106.686677
11
27.877006
21
107.738383
0
LINE
8
Layer 1
10
27.877006
20
107.738383
11
26.371062
21
108.628289
0
LINE
8
Layer 1
10
26.371062
20
108.628289
11
24.802288
21
109.356393
0
LINE
8
Layer 1
10
24.802288
20
109.356393
11
23.183248
21
109.922697
0
LINE
8
Layer 1
10
23.183248
20
109.922697
11
21.526509
21
110.327200
0
LINE
8
Layer 1
10
21.526509
20
110.327200
11
19.844638
21
110.569901
0
LINE
8
Layer 1
10
19.844638
20
110.569901
11
18.150200
21
110.650802
0
LINE
8
Layer 1
10
18.150200
20
110.650802
11
16.455762
21
110.569901
0
LINE
8
Layer 1
10
16.455762
20
110.569901
11
14.773891
21
110.327200
0
LINE
8
Layer 1
10
14.773891
20
110.327200
11
13.117152
21
109.922697
0
LINE
8
Layer 1
10
13.117152
20
109.922697
11
11.498112
21
109.356393
0
LINE
8
Layer 1
10
11.498112
20
109.356393
11
9.929338
21
108.628289
0
LINE
8
Layer 1
10
9.929338
20
108.628289
11
8.423394
21
107.738383
0
LINE
8
Layer 1
10
8.423394
20
107.738383
11
6.992848
21
106.686677
0
LINE
8
Layer 1
10
6.992848
20
106.686677
11
5.650266
21
105.473169
0
LINE
8
Layer 1
10
5.650266
20
105.473169
11
4.436754
21
104.130590
0
LINE
8
Layer 1
10
4.436754
20
104.130590
11
3.385044
21
102.700047
0
LINE
8
Layer 1
10
3.385044
20
102.700047
11
2.495134
21
101.194105
0
LINE
8
Layer 1
10
2.495134
20
101.194105
11
1.767026
21
99.625332
0
LINE
8
Layer 1
10
1.767026
20
99.625332
11
1.200718
21
98.006294
0
LINE
8
Layer 1
10
1.200718
20
98.006294
11
0.796211
21
96.349556
0
LINE
8
Layer 1
10
0.796211
20
96.349556
11
0.553505
21
94.667685
0
LINE
8
Layer 1
10
0.553505
20
94.667685
11
0.472600
21
92.973248
0
LINE
8
Layer 1
10
0.472600
20
92.973248
11
0.553496
21
91.278810
0
LINE
8
Layer 1
10
0.553496
20
91.278810
11
0.796193
21
89.596938
0
LINE
8
Layer 1
10
0.796193
20
89.596938
11
1.200691
21
87.940199
0
LINE
8
Layer 1
10
1.200691
20
87.940199
11
1.766991
21
86.321157
0
LINE
8
Layer 1
10
1.766991
20
86.321157
11
2.495091
21
84.752380
0
LINE
8
Layer 1
10
2.495091
20
84.752380
11
3.384993
21
83.246434
0
LINE
8
Layer 1
10
3.384993
20
83.246434
11
4.436696
21
81.815885
0
LINE
8
Layer 1
10
4.436696
20
81.815885
11
5.650200
21
80.473300
0
LINE
8
Layer 1
10
5.650220
20
12.973400
11
5.760146
21
11.317655
0
LINE
8
Layer 1
10
5.760146
20
11.317655
11
6.082913
21
9.711929
0
LINE
8
Layer 1
10
6.082913
20
9.711929
11
6.608005
21
8.174439
0
LINE
8
Layer 1
10
6.608005
20
8.174439
11
7.324902
21
6.723400
0
LINE
8
Layer 1
10
7.324902
20
6.723400
11
8.223090
21
5.377029
0
LINE
8
Layer 1
10
8.223090
20
5.377029
11
9.292050
21
4.153541
0
LINE
8
Layer 1
10
9.292050
20
4.153541
11
10.521266
21
3.071154
0
LINE
8
Layer 1
10
10.521266
20
3.071154
11
11.900220
21
2.148082
0
LINE
8
Layer 1
10
11.900220
20
2.148082
11
13.389100
21
1.415409
0
LINE
8
Layer 1
10
13.389100
20
1.415409
11
14.941083
21
0.892071
0
LINE
8
Layer 1
10
14.941083
20
0.892071
11
16.535134
21
0.578068
0
LINE
8
Layer 1
10
16.535134
20
0.578068
11
18.150220
21
0.473400
0
LINE
8
Layer 1
10
18.150220
20
0.473400
11
19.765306
21
0.578068
0
LINE
8
Layer 1
10
19.765306
20
0.578068
11
21.359357
21
0.892071
0
LINE
8
Layer 1
10
21.359357
20
0.892071
11
22.911340
21
1.415409
0
LINE
8
Layer 1
10
22.911340
20
1.415409
11
24.400220
21
2.148082
0
LINE
8
Layer 1
10
24.400220
20
2.148082
11
25.779174
21
3.071154
0
LINE
8
Layer 1
10
25.779174
20
3.071154
11
27.008390
21
4.153541
0
LINE
8
Layer 1
10
27.008390
20
4.153541
11
28.077350
21
5.377029
0
LINE
8
Layer 1
10
28.077350
20
5.377029
11
28.975538
21
6.723400
0
LINE
8
Layer 1
10
28.975538
20
6.723400
11
29.692435
21
8.174439
0
LINE
8
Layer 1
10
29.692435
20
8.174439
11
30.217527
21
9.711929
0
LINE
8
Layer 1
10
30.217527
20
9.711929
11
30.540294
21
11.317655
0
LINE
8
Layer 1
10
30.540294
20
11.317655
11
30.650220
21
12.973400
 0 
ENDSEC
 0 
EOF